<svg width="185" height="32" viewBox="0 0 185 32" fill="none" xmlns="http://www.w3.org/2000/svg">
<path fill-rule="evenodd" clip-rule="evenodd" d="M118.251 0.20915V0H117.283V0.20915H115.437C115.472 0.139123 115.509 0.0702489 115.546 0.00208641H114.519C114.508 0.0244029 114.496 0.0464865 114.485 0.0685703V0.0685845V0.0686058V0.0686383C114.462 0.112739 114.44 0.156841 114.419 0.202799C114.418 0.204915 114.417 0.207033 114.416 0.20915H113.359L59.3987 5.01961V23.4248H120.261L125.908 0.20915H124.286C124.285 0.207033 124.284 0.204915 124.283 0.202799C124.262 0.156841 124.239 0.112739 124.217 0.0686383V0.0686058V0.0685847V0.0685719V0.0685622C124.205 0.0464812 124.194 0.0244002 124.183 0.00208641H123.156C123.194 0.0702489 123.231 0.139123 123.266 0.20915H121.74C121.711 0.135458 121.677 0.0657743 121.638 0H119.813L119.813 1.37553e-05C119.884 0.00628149 119.955 0.0125492 120.026 0.0229954C120.193 0.0459939 120.34 0.091994 120.469 0.156808C120.5 0.172636 120.529 0.190102 120.557 0.20915H118.251Z" fill="white"/>
<path d="M119.886 1.96117C120.081 1.94659 120.254 1.90699 120.407 1.8403C120.557 1.77361 120.681 1.67357 120.77 1.53394C120.86 1.39639 120.906 1.20465 120.906 0.958723C120.906 0.750313 120.865 0.585673 120.785 0.460627C120.704 0.337665 120.599 0.243877 120.471 0.177186C120.344 0.112579 120.196 0.0667321 120.028 0.043807C119.957 0.0333865 119.886 0.0250468 119.815 0.0208786H118.253V1.98202H119.265C119.485 1.98202 119.692 1.97576 119.886 1.96117ZM116.221 5.56458C116.616 5.97098 117.082 6.29194 117.618 6.52327C118.155 6.75461 118.736 6.87131 119.363 6.87131C119.982 6.87131 120.557 6.75461 121.088 6.52327C121.621 6.28985 122.083 5.97098 122.479 5.56458C122.872 5.15819 123.181 4.67676 123.405 4.12239C123.629 3.56801 123.739 2.96363 123.739 2.30922C123.739 1.67566 123.626 1.08377 123.405 0.533565C123.332 0.354333 123.246 0.185522 123.154 0.0208786H121.636C121.791 0.283475 121.87 0.608593 121.87 1.00249C121.87 1.56103 121.713 1.9716 121.4 2.23211C121.086 2.49262 120.697 2.64685 120.231 2.69478L122.014 5.43746H120.973L119.278 2.76564H118.251V5.43746H117.283V0.0208786H115.544C115.452 0.185522 115.366 0.354333 115.295 0.533565C115.071 1.08377 114.96 1.67566 114.96 2.30922C114.96 2.96363 115.073 3.56801 115.295 4.12239C115.518 4.67467 115.828 5.1561 116.221 5.56458ZM78.6539 10.6498C77.3033 10.6498 76.5862 11.7023 76.5715 12.7797H80.9162C80.9141 11.5084 80.1091 10.6498 78.6539 10.6498ZM90.1427 31.8096C90.7491 31.4408 105.857 21.7393 121.565 31.8096L129.046 0.0187988H124.185C124.218 0.08549 124.254 0.150095 124.285 0.218871C124.569 0.862857 124.714 1.55894 124.714 2.30714C124.714 3.07617 124.571 3.78268 124.285 4.43292C124.001 5.07899 123.616 5.64378 123.131 6.12312C122.646 6.60246 122.079 6.97344 121.435 7.23812C120.789 7.5028 120.099 7.63618 119.368 7.63618C118.636 7.63618 117.944 7.5028 117.294 7.23812C116.643 6.97344 116.073 6.60038 115.581 6.12312C115.092 5.64378 114.705 5.08108 114.421 4.43292C114.136 3.78268 113.992 3.07617 113.992 2.30714C113.992 1.55894 114.134 0.862857 114.421 0.218871C114.452 0.150095 114.488 0.08549 114.521 0.0187988H51.2418L58.7226 31.8096C74.4285 21.7393 89.5343 31.4408 90.1427 31.8096ZM71.7983 19.3196H61.5723V8.70115H66.1699V16.429H71.7983V19.3196ZM85.5535 14.9159H76.5799C76.5799 16.2977 77.7528 17.3397 79.3188 17.3397C80.2492 17.3397 81.096 17.0334 81.6939 16.2039H85.2712C84.1025 18.882 81.834 19.6448 78.7397 19.6448C74.717 19.6448 71.8736 17.4731 71.8736 14.0344C71.8736 10.3622 74.6752 8.42397 78.7397 8.42397C83.2871 8.42397 85.5681 11.3626 85.5681 14.1886C85.5681 14.4241 85.5869 14.6596 85.5535 14.9159ZM93.8769 19.3363H90.0027L84.2175 8.69282H89.4381L92.7583 15.1619L92.8503 15.3578L92.9339 15.1619L96.0387 8.69282H99.1728L93.8769 19.3363ZM104.094 19.3155H99.6599V8.67198H104.094V19.3155ZM107.425 10.0079L106.089 11.4563H105.533L106.146 9.87659H104.922V7.76956H107.425V10.0079ZM113.246 19.6198C108.508 19.6198 107.645 16.8917 107.645 16.2143H111.076C111.076 16.6124 111.615 17.0876 112.071 17.2814C112.445 17.4419 112.863 17.4731 113.254 17.4731C114.22 17.4731 115.012 17.2397 115.012 16.6791C115.012 15.9976 114.201 15.8475 113.306 15.7183C110.871 15.3682 107.454 14.9597 107.454 12.2441C107.454 9.70986 110.231 8.4198 113.177 8.4198C117.894 8.4198 119.146 11.0249 119.146 11.7794H115.659C115.659 11.5543 115.487 11.1208 115.01 10.8749C114.657 10.6915 114.139 10.5435 113.639 10.5435C112.336 10.5435 111.602 10.8144 111.602 11.4084C111.602 11.894 112.263 12.1357 113.212 12.2983C115.69 12.7214 119.493 12.8694 119.493 15.8725C119.491 17.4002 118.165 19.6198 113.246 19.6198Z" fill="#C41230"/>
<path d="M168.522 0.0187988C163.047 0.0187988 160.606 2.676 160.606 8.63661V23.1904C160.606 29.151 163.047 31.8082 168.522 31.8082C173.996 31.8082 176.437 29.151 176.437 23.1904V8.63806C176.436 2.67745 173.996 0.0187988 168.522 0.0187988ZM170.744 24.4944C170.744 26.2518 170.017 27.1066 168.522 27.1066C167.026 27.1066 166.299 26.2518 166.299 24.4944V7.33408C166.299 5.57662 167.026 4.72179 168.522 4.72179C170.017 4.72179 170.744 5.57662 170.744 7.33408V24.4944ZM141.375 0.0187988V31.388H135.942V7.32829H132.392V4.04083L132.553 3.96114C135.319 2.59341 136.629 1.36189 138.169 0.0854451L138.251 0.0187988H141.375ZM177.694 3.00344V2.00808H178.365V0.440413H179.576V2.00808H180.387V3.00344H179.576V6.3561C179.576 6.65892 179.706 6.83133 179.987 6.83133H180.387V7.87016C180.225 7.91363 180.085 7.93536 179.782 7.93536C178.873 7.93536 178.365 7.51374 178.365 6.62704V3.00489H177.694V3.00344ZM180.837 7.8267V0.0187988H182.048V2.54995C182.491 2.16021 182.751 1.90086 183.453 1.90086C184.091 1.90086 184.471 2.36595 184.471 3.12225V7.8267H183.259V3.3164C183.259 3.02373 183.087 2.89478 182.826 2.89478C182.567 2.89478 182.329 3.05706 182.048 3.26279V7.8267H180.837ZM158.871 16.9241V19.9609L158.87 24.1495C158.87 29.2278 156.331 31.6213 151.555 31.7966C151.481 31.8039 151.405 31.8096 151.323 31.8096C146.163 31.8096 143.609 29.8667 143.609 24.6219V20.4274H148.753V23.3903V23.3918L148.767 23.4019V24.4958C148.767 26.2533 149.495 27.1081 150.99 27.1081C152.485 27.1081 153.213 26.2533 153.213 24.4958V17.6485H153.198C153.198 17.2008 153.198 16.9241 153.198 16.9241C153.198 15.1666 152.471 14.3118 150.976 14.3118C149.567 14.3118 148.841 15.0695 148.76 16.6256H143.873L143.841 0.440413H157.908L157.892 5.31002H148.998V10.9954C150.179 9.83771 151.278 9.61024 152.884 9.61024C156.685 9.61024 158.871 11.9704 158.871 16.9241Z" fill="white"/>
<path d="M25.1128 0.0187988C19.6343 0.0187988 17.1909 2.67613 17.1909 8.637V23.1914C17.1909 29.1523 19.6343 31.8096 25.1128 31.8096C30.5913 31.8096 33.0347 29.1523 33.0347 23.1914V8.637C33.0333 2.67613 30.5913 0.0187988 25.1128 0.0187988ZM27.3373 24.4955C27.3373 26.253 26.6093 27.1079 25.1128 27.1079C23.6163 27.1079 22.8884 26.253 22.8884 24.4955V7.33297C22.8884 5.57542 23.6163 4.72056 25.1128 4.72056C26.6093 4.72056 27.3373 5.57542 27.3373 7.33297V24.4955ZM43.5421 0.0187988V31.3895H38.1057V7.32862H34.553V4.04101L34.7139 3.96132C37.4822 2.59354 40.4157 0.0187988 40.4157 0.0187988H43.5421ZM45.4635 1.61262C45.4635 0.646183 46.2335 0.0187988 47.0978 0.0187988C47.962 0.0187988 48.732 0.646183 48.732 1.61262C48.732 2.5834 47.962 3.20643 47.0978 3.20643C46.2335 3.20643 45.4635 2.5834 45.4635 1.61262ZM47.0978 0.3535C46.4177 0.3535 45.8855 0.878011 45.8855 1.61262C45.8855 2.34722 46.4191 2.87173 47.0978 2.87173C47.7692 2.87173 48.3101 2.34722 48.3101 1.61262C48.3101 0.878011 47.7677 0.3535 47.0978 0.3535ZM46.8136 2.50226H46.4612V0.718628H47.1369C47.5836 0.718628 47.8286 0.860623 47.8286 1.24749C47.8286 1.57349 47.6314 1.70245 47.3979 1.72418L47.8286 2.50226H47.4371L47.0369 1.74157H46.8136V2.50226ZM46.8136 1.46627H47.1195C47.3776 1.46627 47.4676 1.38513 47.4676 1.21706C47.4676 1.04898 47.3602 0.993924 47.1021 0.993924H46.8136V1.46627ZM15.2739 16.9234V19.9603L15.2724 24.1492C15.2724 29.2277 12.7319 31.6213 7.95235 31.7966C7.87839 31.8039 7.80153 31.8096 7.72033 31.8096C2.55653 31.8096 0 29.8666 0 24.6215V20.4269H5.14785V23.3899V23.3914L5.16235 23.4015V24.4955C5.16235 26.253 5.8903 27.1079 7.38681 27.1079C8.88331 27.1079 9.61126 26.253 9.61126 24.4955V17.6479H9.59676C9.59676 17.2001 9.59676 16.9234 9.59676 16.9234C9.59676 15.1659 8.86881 14.311 7.37231 14.311C5.96281 14.311 5.23631 15.0688 5.1551 16.6249H0.263919L0.232017 0.438986H14.3096L14.2936 5.30882H5.39292V10.9944C6.57475 9.83671 7.67538 9.60923 9.28209 9.60923C13.0857 9.60923 15.2739 11.971 15.2739 16.9234Z" fill="white"/>
</svg>
